<mxfile host="app.diagrams.net" modified="2021-06-25T07:47:17.428Z" agent="5.0 (Macintosh; Intel Mac OS X 10_15_7) AppleWebKit/537.36 (KHTML, like Gecko) Chrome/91.0.4472.106 Safari/537.36" etag="NndPlQ7pbw1aWPo4vuso" version="14.7.0" type="github">
  <diagram id="Fw7ZkmO-Fz_IXCNn4WgB" name="Page-1">
    <mxGraphModel dx="2852" dy="2298" grid="1" gridSize="10" guides="1" tooltips="1" connect="1" arrows="1" fold="1" page="1" pageScale="1" pageWidth="827" pageHeight="1169" math="0" shadow="0">
      <root>
        <mxCell id="0" />
        <mxCell id="1" parent="0" />
        <mxCell id="tUdVWyh1depMTYAJVUoq-23" value="" style="rounded=0;whiteSpace=wrap;html=1;dashed=1;fillColor=#F8CECC;strokeColor=none;" parent="1" vertex="1">
          <mxGeometry x="-160" y="780" width="600" height="152.5" as="geometry" />
        </mxCell>
        <mxCell id="-9IPMKyI9ktzAvCkotJi-9" value="&lt;b&gt;Engine&lt;/b&gt;" style="ellipse;shape=doubleEllipse;whiteSpace=wrap;html=1;aspect=fixed;" parent="1" vertex="1">
          <mxGeometry x="180" y="150" width="80" height="80" as="geometry" />
        </mxCell>
        <mxCell id="H4OJQVjIFTHqEDWcg4Kd-15" style="edgeStyle=orthogonalEdgeStyle;rounded=0;orthogonalLoop=1;jettySize=auto;html=1;fontColor=#000000;strokeColor=#666666;dashed=1;" edge="1" parent="1" source="-9IPMKyI9ktzAvCkotJi-31" target="-9IPMKyI9ktzAvCkotJi-9">
          <mxGeometry relative="1" as="geometry" />
        </mxCell>
        <mxCell id="H4OJQVjIFTHqEDWcg4Kd-16" value="&amp;nbsp;初始化使用" style="edgeLabel;html=1;align=center;verticalAlign=middle;resizable=0;points=[];fontColor=#000000;" vertex="1" connectable="0" parent="H4OJQVjIFTHqEDWcg4Kd-15">
          <mxGeometry x="-0.1618" y="-1" relative="1" as="geometry">
            <mxPoint x="-37" y="29" as="offset" />
          </mxGeometry>
        </mxCell>
        <mxCell id="-9IPMKyI9ktzAvCkotJi-31" value="Context 协议" style="swimlane;fontStyle=0;childLayout=stackLayout;horizontal=1;startSize=26;horizontalStack=0;resizeParent=1;resizeParentMax=0;resizeLast=0;collapsible=1;marginBottom=0;align=center;fontSize=14;" parent="1" vertex="1">
          <mxGeometry x="370" y="-30" width="160" height="116" as="geometry">
            <mxRectangle x="130" y="-30" width="120" height="26" as="alternateBounds" />
          </mxGeometry>
        </mxCell>
        <mxCell id="-9IPMKyI9ktzAvCkotJi-32" value="debugMode等一些参数" style="text;strokeColor=none;fillColor=none;spacingLeft=4;spacingRight=4;overflow=hidden;rotatable=0;points=[[0,0.5],[1,0.5]];portConstraint=eastwest;fontSize=12;" parent="-9IPMKyI9ktzAvCkotJi-31" vertex="1">
          <mxGeometry y="26" width="160" height="30" as="geometry" />
        </mxCell>
        <mxCell id="-9IPMKyI9ktzAvCkotJi-33" value="设置回调Delegate" style="text;strokeColor=none;fillColor=none;spacingLeft=4;spacingRight=4;overflow=hidden;rotatable=0;points=[[0,0.5],[1,0.5]];portConstraint=eastwest;fontSize=12;" parent="-9IPMKyI9ktzAvCkotJi-31" vertex="1">
          <mxGeometry y="56" width="160" height="30" as="geometry" />
        </mxCell>
        <mxCell id="-9IPMKyI9ktzAvCkotJi-34" value="add各种observer" style="text;strokeColor=none;fillColor=none;spacingLeft=4;spacingRight=4;overflow=hidden;rotatable=0;points=[[0,0.5],[1,0.5]];portConstraint=eastwest;fontSize=12;" parent="-9IPMKyI9ktzAvCkotJi-31" vertex="1">
          <mxGeometry y="86" width="160" height="30" as="geometry" />
        </mxCell>
        <mxCell id="-9IPMKyI9ktzAvCkotJi-35" value="" style="endArrow=diamondThin;html=1;dashed=1;endFill=0;strokeColor=#8C8C8C;" parent="1" source="-9IPMKyI9ktzAvCkotJi-31" target="-9IPMKyI9ktzAvCkotJi-57" edge="1">
          <mxGeometry width="50" height="50" relative="1" as="geometry">
            <mxPoint x="300" y="320" as="sourcePoint" />
            <mxPoint x="350" y="270" as="targetPoint" />
          </mxGeometry>
        </mxCell>
        <mxCell id="-9IPMKyI9ktzAvCkotJi-37" value="&lt;b&gt;多种&lt;br&gt;Observers&lt;/b&gt;" style="rounded=1;whiteSpace=wrap;html=1;" parent="1" vertex="1">
          <mxGeometry x="685" y="440" width="90" height="50" as="geometry" />
        </mxCell>
        <mxCell id="H4OJQVjIFTHqEDWcg4Kd-14" style="edgeStyle=orthogonalEdgeStyle;rounded=0;orthogonalLoop=1;jettySize=auto;html=1;fontColor=#000000;strokeColor=#666666;" edge="1" parent="1" source="-9IPMKyI9ktzAvCkotJi-42" target="-9IPMKyI9ktzAvCkotJi-55">
          <mxGeometry relative="1" as="geometry" />
        </mxCell>
        <mxCell id="-9IPMKyI9ktzAvCkotJi-42" value="&lt;b&gt;Traverser&lt;/b&gt;" style="rounded=1;whiteSpace=wrap;html=1;" parent="1" vertex="1">
          <mxGeometry x="350" y="460" width="90" height="50" as="geometry" />
        </mxCell>
        <mxCell id="H4OJQVjIFTHqEDWcg4Kd-11" style="edgeStyle=orthogonalEdgeStyle;rounded=0;orthogonalLoop=1;jettySize=auto;html=1;entryX=0;entryY=0.5;entryDx=0;entryDy=0;fontColor=#666666;strokeColor=#666666;" edge="1" parent="1" source="-9IPMKyI9ktzAvCkotJi-45" target="H4OJQVjIFTHqEDWcg4Kd-10">
          <mxGeometry relative="1" as="geometry" />
        </mxCell>
        <mxCell id="-9IPMKyI9ktzAvCkotJi-45" value="&lt;b&gt;Traverser&lt;br&gt;Runner&lt;/b&gt;" style="rounded=1;whiteSpace=wrap;html=1;" parent="1" vertex="1">
          <mxGeometry x="-130" y="460" width="90" height="50" as="geometry" />
        </mxCell>
        <mxCell id="H4OJQVjIFTHqEDWcg4Kd-8" style="edgeStyle=orthogonalEdgeStyle;rounded=0;orthogonalLoop=1;jettySize=auto;html=1;entryX=0;entryY=0.5;entryDx=0;entryDy=0;" edge="1" parent="1" source="-9IPMKyI9ktzAvCkotJi-50" target="H4OJQVjIFTHqEDWcg4Kd-1">
          <mxGeometry relative="1" as="geometry" />
        </mxCell>
        <mxCell id="H4OJQVjIFTHqEDWcg4Kd-9" value="进 queue" style="edgeLabel;html=1;align=center;verticalAlign=middle;resizable=0;points=[];" vertex="1" connectable="0" parent="H4OJQVjIFTHqEDWcg4Kd-8">
          <mxGeometry x="-0.3714" relative="1" as="geometry">
            <mxPoint x="21" as="offset" />
          </mxGeometry>
        </mxCell>
        <mxCell id="-9IPMKyI9ktzAvCkotJi-50" value="AOP" style="ellipse;whiteSpace=wrap;html=1;aspect=fixed;dashed=1;strokeColor=#888888;strokeWidth=2;" parent="1" vertex="1">
          <mxGeometry x="-145" y="300" width="80" height="80" as="geometry" />
        </mxCell>
        <mxCell id="-9IPMKyI9ktzAvCkotJi-51" value="" style="endArrow=block;html=1;endFill=1;exitX=0.5;exitY=1;exitDx=0;exitDy=0;dashed=1;strokeColor=#666666;" parent="1" source="H4OJQVjIFTHqEDWcg4Kd-1" target="H4OJQVjIFTHqEDWcg4Kd-10" edge="1">
          <mxGeometry width="50" height="50" relative="1" as="geometry">
            <mxPoint x="144" y="340" as="sourcePoint" />
            <mxPoint x="365" y="360" as="targetPoint" />
          </mxGeometry>
        </mxCell>
        <mxCell id="-9IPMKyI9ktzAvCkotJi-63" value="使用queue" style="edgeLabel;html=1;align=center;verticalAlign=middle;resizable=0;points=[];fontColor=#666666;" parent="-9IPMKyI9ktzAvCkotJi-51" vertex="1" connectable="0">
          <mxGeometry x="-0.4571" y="2" relative="1" as="geometry">
            <mxPoint x="-2" y="36" as="offset" />
          </mxGeometry>
        </mxCell>
        <mxCell id="-9IPMKyI9ktzAvCkotJi-52" value="" style="endArrow=block;html=1;endFill=1;" parent="1" source="H4OJQVjIFTHqEDWcg4Kd-10" target="-9IPMKyI9ktzAvCkotJi-42" edge="1">
          <mxGeometry width="50" height="50" relative="1" as="geometry">
            <mxPoint x="210" y="485" as="sourcePoint" />
            <mxPoint x="540" y="550" as="targetPoint" />
          </mxGeometry>
        </mxCell>
        <mxCell id="-9IPMKyI9ktzAvCkotJi-61" value="run" style="edgeLabel;html=1;align=center;verticalAlign=middle;resizable=0;points=[];" parent="-9IPMKyI9ktzAvCkotJi-52" vertex="1" connectable="0">
          <mxGeometry x="-0.1385" y="-1" relative="1" as="geometry">
            <mxPoint y="-11" as="offset" />
          </mxGeometry>
        </mxCell>
        <mxCell id="-9IPMKyI9ktzAvCkotJi-53" value="&lt;font color=&quot;#888888&quot;&gt;1. 全量: 自顶向下遍历，生成VTree&lt;br&gt;2. 增量: 滚动模式下，增量&lt;br&gt;&lt;/font&gt;" style="shape=callout;whiteSpace=wrap;html=1;perimeter=calloutPerimeter;align=left;dashed=1;strokeColor=#888888;" parent="1" vertex="1">
          <mxGeometry x="470" y="390" width="190" height="70" as="geometry" />
        </mxCell>
        <mxCell id="-9IPMKyI9ktzAvCkotJi-54" value="" style="endArrow=async;html=1;dashed=1;endFill=1;strokeColor=#8C8C8C;dashPattern=1 4;" parent="1" target="-9IPMKyI9ktzAvCkotJi-42" edge="1">
          <mxGeometry width="50" height="50" relative="1" as="geometry">
            <mxPoint x="519.7846889952152" y="420" as="sourcePoint" />
            <mxPoint x="303.18" y="510" as="targetPoint" />
          </mxGeometry>
        </mxCell>
        <mxCell id="-9IPMKyI9ktzAvCkotJi-91" value="" style="rounded=0;orthogonalLoop=1;jettySize=auto;html=1;endArrow=ERmany;endFill=0;strokeColor=#000000;" parent="1" source="ZJUZ4eZtSbDHKU7JVQRD-17" target="-9IPMKyI9ktzAvCkotJi-37" edge="1">
          <mxGeometry relative="1" as="geometry">
            <mxPoint x="990" y="420" as="sourcePoint" />
          </mxGeometry>
        </mxCell>
        <mxCell id="-9IPMKyI9ktzAvCkotJi-95" value="1..n" style="edgeLabel;html=1;align=center;verticalAlign=middle;resizable=0;points=[];" parent="-9IPMKyI9ktzAvCkotJi-91" vertex="1" connectable="0">
          <mxGeometry x="-0.0273" y="-2" relative="1" as="geometry">
            <mxPoint as="offset" />
          </mxGeometry>
        </mxCell>
        <mxCell id="-9IPMKyI9ktzAvCkotJi-55" value="&lt;b&gt;VTree&lt;/b&gt;" style="rounded=1;whiteSpace=wrap;html=1;" parent="1" vertex="1">
          <mxGeometry x="334.99999999999994" y="300" width="120" height="50" as="geometry" />
        </mxCell>
        <mxCell id="ZJUZ4eZtSbDHKU7JVQRD-18" style="edgeStyle=none;rounded=0;orthogonalLoop=1;jettySize=auto;html=1;fontSize=18;fontColor=#999999;strokeColor=#333333;" parent="1" source="-9IPMKyI9ktzAvCkotJi-57" target="ZJUZ4eZtSbDHKU7JVQRD-17" edge="1">
          <mxGeometry relative="1" as="geometry">
            <Array as="points" />
          </mxGeometry>
        </mxCell>
        <mxCell id="-9IPMKyI9ktzAvCkotJi-57" value="&lt;b&gt;Context&lt;/b&gt;" style="rounded=1;whiteSpace=wrap;html=1;" parent="1" vertex="1">
          <mxGeometry x="400" y="165" width="100" height="50" as="geometry" />
        </mxCell>
        <mxCell id="-9IPMKyI9ktzAvCkotJi-58" value="" style="endArrow=block;html=1;endFill=1;entryX=0;entryY=0.5;entryDx=0;entryDy=0;" parent="1" source="-9IPMKyI9ktzAvCkotJi-9" target="-9IPMKyI9ktzAvCkotJi-57" edge="1">
          <mxGeometry width="50" height="50" relative="1" as="geometry">
            <mxPoint x="290" y="300" as="sourcePoint" />
            <mxPoint x="290" y="430" as="targetPoint" />
          </mxGeometry>
        </mxCell>
        <mxCell id="-9IPMKyI9ktzAvCkotJi-59" value="初始化 &amp;amp; 持有" style="edgeLabel;html=1;align=center;verticalAlign=middle;resizable=0;points=[];" parent="-9IPMKyI9ktzAvCkotJi-58" vertex="1" connectable="0">
          <mxGeometry x="0.1" y="1" relative="1" as="geometry">
            <mxPoint x="-7" y="1" as="offset" />
          </mxGeometry>
        </mxCell>
        <mxCell id="-9IPMKyI9ktzAvCkotJi-67" value="" style="endArrow=block;html=1;endFill=1;" parent="1" source="-9IPMKyI9ktzAvCkotJi-55" target="ZJUZ4eZtSbDHKU7JVQRD-17" edge="1">
          <mxGeometry width="50" height="50" relative="1" as="geometry">
            <mxPoint x="600.0027272727275" y="620" as="sourcePoint" />
            <mxPoint x="510" y="480" as="targetPoint" />
            <Array as="points" />
          </mxGeometry>
        </mxCell>
        <mxCell id="-9IPMKyI9ktzAvCkotJi-68" value="push给" style="edgeLabel;html=1;align=center;verticalAlign=middle;resizable=0;points=[];" parent="-9IPMKyI9ktzAvCkotJi-67" vertex="1" connectable="0">
          <mxGeometry x="-0.0109" y="-2" relative="1" as="geometry">
            <mxPoint as="offset" />
          </mxGeometry>
        </mxCell>
        <mxCell id="-9IPMKyI9ktzAvCkotJi-72" value="&lt;b&gt;Output&lt;/b&gt;" style="rounded=1;whiteSpace=wrap;html=1;" parent="1" vertex="1">
          <mxGeometry x="1057.3" y="165" width="150" height="50" as="geometry" />
        </mxCell>
        <mxCell id="-9IPMKyI9ktzAvCkotJi-76" value="&lt;b&gt;Output Formater&lt;/b&gt;" style="rounded=1;whiteSpace=wrap;html=1;" parent="1" vertex="1">
          <mxGeometry x="1075" y="20" width="120" height="50" as="geometry" />
        </mxCell>
        <mxCell id="-9IPMKyI9ktzAvCkotJi-79" value="使用formater进行格式化" style="endArrow=diamondThin;html=1;dashed=1;endFill=0;strokeColor=#8C8C8C;" parent="1" source="-9IPMKyI9ktzAvCkotJi-76" target="-9IPMKyI9ktzAvCkotJi-72" edge="1">
          <mxGeometry x="-0.3679" y="-1" width="50" height="50" relative="1" as="geometry">
            <mxPoint x="987.3" y="50" as="sourcePoint" />
            <mxPoint x="987.3" y="114" as="targetPoint" />
            <mxPoint as="offset" />
          </mxGeometry>
        </mxCell>
        <mxCell id="-9IPMKyI9ktzAvCkotJi-96" value="&lt;font color=&quot;#888888&quot;&gt;1. VTree Observers &amp;amp;&amp;amp; 其他Observers&lt;br&gt;2. 每一个Observer可以监控某些曝光事件&lt;br&gt;3. 比如仅仅监听page_id=&#39;abc&#39;的曝光事件&lt;br&gt;4. Observer可被强/弱持有，可enable|disable&lt;br&gt;&lt;/font&gt;" style="shape=callout;whiteSpace=wrap;html=1;perimeter=calloutPerimeter;align=left;dashed=1;strokeColor=#888888;" parent="1" vertex="1">
          <mxGeometry x="1010" y="440" width="250" height="90" as="geometry" />
        </mxCell>
        <mxCell id="-9IPMKyI9ktzAvCkotJi-97" value="" style="endArrow=async;html=1;dashed=1;endFill=1;strokeColor=#8C8C8C;dashPattern=1 4;" parent="1" source="-9IPMKyI9ktzAvCkotJi-96" target="-9IPMKyI9ktzAvCkotJi-37" edge="1">
          <mxGeometry width="50" height="50" relative="1" as="geometry">
            <mxPoint x="1095.0045454545455" y="-55" as="sourcePoint" />
            <mxPoint x="595.3" y="654.1860465116279" as="targetPoint" />
          </mxGeometry>
        </mxCell>
        <mxCell id="-9IPMKyI9ktzAvCkotJi-98" value="&lt;b&gt;Public Params &lt;br&gt;Builder&lt;/b&gt;" style="rounded=1;whiteSpace=wrap;html=1;" parent="1" vertex="1">
          <mxGeometry x="860" y="30" width="120" height="50" as="geometry" />
        </mxCell>
        <mxCell id="-9IPMKyI9ktzAvCkotJi-99" value="&lt;font color=&quot;#888888&quot;&gt;1. 这里可以构建公参&lt;br&gt;2. 可以直接构建 &amp;amp; 回调构建&lt;br&gt;3. 默认配置文件可以配置各个公参的key&lt;br&gt;4. 业务方可以自定义新增其他公参&lt;br&gt;&lt;/font&gt;" style="shape=callout;whiteSpace=wrap;html=1;perimeter=calloutPerimeter;align=left;dashed=1;strokeColor=#888888;" parent="1" vertex="1">
          <mxGeometry x="810" y="-105" width="225" height="90" as="geometry" />
        </mxCell>
        <mxCell id="-9IPMKyI9ktzAvCkotJi-100" value="" style="endArrow=async;html=1;dashed=1;endFill=1;strokeColor=#8C8C8C;dashPattern=1 4;" parent="1" source="-9IPMKyI9ktzAvCkotJi-99" target="-9IPMKyI9ktzAvCkotJi-98" edge="1">
          <mxGeometry width="50" height="50" relative="1" as="geometry">
            <mxPoint x="1586.9626785714283" y="150" as="sourcePoint" />
            <mxPoint x="1527.2975" y="195" as="targetPoint" />
          </mxGeometry>
        </mxCell>
        <mxCell id="-9IPMKyI9ktzAvCkotJi-101" value="使用formater进行格式化" style="endArrow=diamondThin;html=1;dashed=1;endFill=0;strokeColor=#8C8C8C;" parent="1" source="-9IPMKyI9ktzAvCkotJi-98" target="-9IPMKyI9ktzAvCkotJi-72" edge="1">
          <mxGeometry width="50" height="50" relative="1" as="geometry">
            <mxPoint x="1152.3" y="80" as="sourcePoint" />
            <mxPoint x="1152.3" y="175" as="targetPoint" />
          </mxGeometry>
        </mxCell>
        <mxCell id="-9IPMKyI9ktzAvCkotJi-102" value="&lt;b&gt;Debug Log&lt;/b&gt;" style="rounded=1;whiteSpace=wrap;html=1;" parent="1" vertex="1">
          <mxGeometry x="1057.3" y="330" width="150" height="50" as="geometry" />
        </mxCell>
        <mxCell id="-9IPMKyI9ktzAvCkotJi-103" value="" style="endArrow=block;html=1;endFill=1;exitX=1;exitY=0.5;exitDx=0;exitDy=0;" parent="1" source="ZJUZ4eZtSbDHKU7JVQRD-17" target="-9IPMKyI9ktzAvCkotJi-102" edge="1">
          <mxGeometry width="50" height="50" relative="1" as="geometry">
            <mxPoint x="605.3" y="269.58" as="sourcePoint" />
            <mxPoint x="765.3" y="269.58" as="targetPoint" />
          </mxGeometry>
        </mxCell>
        <mxCell id="-9IPMKyI9ktzAvCkotJi-104" value="SDK内部的一些调试日志" style="edgeLabel;html=1;align=center;verticalAlign=middle;resizable=0;points=[];" parent="-9IPMKyI9ktzAvCkotJi-103" vertex="1" connectable="0">
          <mxGeometry x="-0.0109" y="-2" relative="1" as="geometry">
            <mxPoint x="9.52" y="1.3299999999999983" as="offset" />
          </mxGeometry>
        </mxCell>
        <mxCell id="-9IPMKyI9ktzAvCkotJi-106" value="&lt;font color=&quot;#888888&quot;&gt;1. 默认提供一种内置的格式&lt;br&gt;&lt;/font&gt;" style="shape=callout;whiteSpace=wrap;html=1;perimeter=calloutPerimeter;align=left;dashed=1;strokeColor=#888888;" parent="1" vertex="1">
          <mxGeometry x="1049.8" y="-90" width="165" height="70" as="geometry" />
        </mxCell>
        <mxCell id="-9IPMKyI9ktzAvCkotJi-107" value="" style="endArrow=async;html=1;dashed=1;endFill=1;strokeColor=#8C8C8C;dashPattern=1 4;" parent="1" source="-9IPMKyI9ktzAvCkotJi-106" target="-9IPMKyI9ktzAvCkotJi-76" edge="1">
          <mxGeometry width="50" height="50" relative="1" as="geometry">
            <mxPoint x="1377.3" y="-40.00000000000023" as="sourcePoint" />
            <mxPoint x="1377.3" y="30" as="targetPoint" />
          </mxGeometry>
        </mxCell>
        <mxCell id="-9IPMKyI9ktzAvCkotJi-108" value="N" style="text;html=1;align=center;verticalAlign=middle;resizable=0;points=[];autosize=1;" parent="1" vertex="1">
          <mxGeometry x="1035.3" y="170" width="20" height="20" as="geometry" />
        </mxCell>
        <mxCell id="-9IPMKyI9ktzAvCkotJi-110" value="1" style="text;html=1;align=center;verticalAlign=middle;resizable=0;points=[];autosize=1;" parent="1" vertex="1">
          <mxGeometry x="875.3" y="170" width="20" height="20" as="geometry" />
        </mxCell>
        <mxCell id="-9IPMKyI9ktzAvCkotJi-114" value="&lt;b&gt;Params Guard&lt;br&gt;&lt;/b&gt;" style="rounded=1;whiteSpace=wrap;html=1;" parent="1" vertex="1">
          <mxGeometry x="1400" y="20" width="120" height="50" as="geometry" />
        </mxCell>
        <mxCell id="-9IPMKyI9ktzAvCkotJi-115" value="&lt;font color=&quot;#888888&quot;&gt;1. 确保参数的使用是安全的&lt;br&gt;2. 比如业务参数，不可覆盖内置/公参&lt;br&gt;3. 参数命名规范(注入正则表达式)&lt;br&gt;&lt;/font&gt;" style="shape=callout;whiteSpace=wrap;html=1;perimeter=calloutPerimeter;align=left;dashed=1;strokeColor=#888888;" parent="1" vertex="1">
          <mxGeometry x="1347.5" y="-100" width="225" height="80" as="geometry" />
        </mxCell>
        <mxCell id="-9IPMKyI9ktzAvCkotJi-116" value="确保参数安全" style="endArrow=diamondThin;html=1;dashed=1;endFill=0;strokeColor=#8C8C8C;" parent="1" source="-9IPMKyI9ktzAvCkotJi-114" target="-9IPMKyI9ktzAvCkotJi-76" edge="1">
          <mxGeometry width="50" height="50" relative="1" as="geometry">
            <mxPoint x="1343.6793103448279" y="80" as="sourcePoint" />
            <mxPoint x="1215.9206896551725" y="175" as="targetPoint" />
          </mxGeometry>
        </mxCell>
        <mxCell id="-9IPMKyI9ktzAvCkotJi-117" value="" style="endArrow=async;html=1;dashed=1;endFill=1;strokeColor=#8C8C8C;dashPattern=1 4;" parent="1" source="-9IPMKyI9ktzAvCkotJi-115" target="-9IPMKyI9ktzAvCkotJi-114" edge="1">
          <mxGeometry width="50" height="50" relative="1" as="geometry">
            <mxPoint x="1515.3" y="-60" as="sourcePoint" />
            <mxPoint x="1367.3" y="20" as="targetPoint" />
          </mxGeometry>
        </mxCell>
        <mxCell id="-9IPMKyI9ktzAvCkotJi-118" value="&lt;font color=&quot;#888888&quot;&gt;NEBILogger&lt;/font&gt;" style="rounded=1;whiteSpace=wrap;html=1;strokeColor=#888888;" parent="1" vertex="1">
          <mxGeometry x="1423.3" y="100" width="150" height="50" as="geometry" />
        </mxCell>
        <mxCell id="-9IPMKyI9ktzAvCkotJi-120" value="" style="endArrow=block;html=1;endFill=1;strokeColor=#888888;" parent="1" source="-9IPMKyI9ktzAvCkotJi-72" target="-9IPMKyI9ktzAvCkotJi-118" edge="1">
          <mxGeometry width="50" height="50" relative="1" as="geometry">
            <mxPoint x="1457.3" y="280.7185714285716" as="sourcePoint" />
            <mxPoint x="1663.966666666667" y="369.29" as="targetPoint" />
          </mxGeometry>
        </mxCell>
        <mxCell id="-9IPMKyI9ktzAvCkotJi-121" value="&lt;font color=&quot;#888888&quot;&gt;可：输出到日志上传通道&lt;/font&gt;" style="edgeLabel;html=1;align=center;verticalAlign=middle;resizable=0;points=[];" parent="-9IPMKyI9ktzAvCkotJi-120" vertex="1" connectable="0">
          <mxGeometry x="-0.0109" y="-2" relative="1" as="geometry">
            <mxPoint y="-2" as="offset" />
          </mxGeometry>
        </mxCell>
        <mxCell id="-9IPMKyI9ktzAvCkotJi-122" value="&lt;font color=&quot;#888888&quot;&gt;Debug Console ...&lt;/font&gt;" style="rounded=1;whiteSpace=wrap;html=1;strokeColor=#888888;" parent="1" vertex="1">
          <mxGeometry x="1423.3" y="330" width="150" height="50" as="geometry" />
        </mxCell>
        <mxCell id="-9IPMKyI9ktzAvCkotJi-123" value="" style="endArrow=block;html=1;endFill=1;strokeColor=#888888;" parent="1" source="-9IPMKyI9ktzAvCkotJi-102" target="-9IPMKyI9ktzAvCkotJi-122" edge="1">
          <mxGeometry width="50" height="50" relative="1" as="geometry">
            <mxPoint x="1225.3" y="404.58000000000004" as="sourcePoint" />
            <mxPoint x="1515.3" y="404.58000000000004" as="targetPoint" />
          </mxGeometry>
        </mxCell>
        <mxCell id="-9IPMKyI9ktzAvCkotJi-124" value="&lt;font color=&quot;#888888&quot;&gt;输出到控制台/其他地方&lt;br&gt;&lt;/font&gt;" style="edgeLabel;html=1;align=center;verticalAlign=middle;resizable=0;points=[];" parent="-9IPMKyI9ktzAvCkotJi-123" vertex="1" connectable="0">
          <mxGeometry x="-0.0109" y="-2" relative="1" as="geometry">
            <mxPoint y="-2" as="offset" />
          </mxGeometry>
        </mxCell>
        <mxCell id="-9IPMKyI9ktzAvCkotJi-125" value="" style="endArrow=block;html=1;endFill=1;" parent="1" source="-9IPMKyI9ktzAvCkotJi-72" target="-9IPMKyI9ktzAvCkotJi-102" edge="1">
          <mxGeometry width="50" height="50" relative="1" as="geometry">
            <mxPoint x="1157.3" y="550" as="sourcePoint" />
            <mxPoint x="1382.3" y="675" as="targetPoint" />
          </mxGeometry>
        </mxCell>
        <mxCell id="-9IPMKyI9ktzAvCkotJi-126" value="可选&lt;br&gt;是否将格式化后的结果同步输出到Log" style="edgeLabel;html=1;align=center;verticalAlign=middle;resizable=0;points=[];" parent="-9IPMKyI9ktzAvCkotJi-125" vertex="1" connectable="0">
          <mxGeometry x="-0.0109" y="-2" relative="1" as="geometry">
            <mxPoint x="2" y="-2" as="offset" />
          </mxGeometry>
        </mxCell>
        <mxCell id="-9IPMKyI9ktzAvCkotJi-127" value="业务方主动触发一个自定义事件" style="ellipse;whiteSpace=wrap;html=1;aspect=fixed;dashed=1;strokeColor=#888888;" parent="1" vertex="1">
          <mxGeometry x="-145" y="150" width="80" height="80" as="geometry" />
        </mxCell>
        <mxCell id="-9IPMKyI9ktzAvCkotJi-128" value="" style="endArrow=block;html=1;endFill=1;" parent="1" source="-9IPMKyI9ktzAvCkotJi-127" target="-9IPMKyI9ktzAvCkotJi-9" edge="1">
          <mxGeometry width="50" height="50" relative="1" as="geometry">
            <mxPoint x="-360.00494474958003" y="280.00092634209483" as="sourcePoint" />
            <mxPoint x="-133.25142857142845" y="410.06" as="targetPoint" />
          </mxGeometry>
        </mxCell>
        <mxCell id="-9IPMKyI9ktzAvCkotJi-129" value="直接调用Engine来进行埋点" style="edgeLabel;html=1;align=center;verticalAlign=middle;resizable=0;points=[];" parent="-9IPMKyI9ktzAvCkotJi-128" vertex="1" connectable="0">
          <mxGeometry x="-0.4571" y="2" relative="1" as="geometry">
            <mxPoint x="58.33" y="1.9999999999999991" as="offset" />
          </mxGeometry>
        </mxCell>
        <mxCell id="-9IPMKyI9ktzAvCkotJi-130" value="&lt;font color=&quot;#888888&quot; style=&quot;font-size: 10px&quot;&gt;1. 这里仅针对于该事件埋点，需要附带上公参、层级结构等&lt;br&gt;&lt;/font&gt;" style="shape=callout;whiteSpace=wrap;html=1;perimeter=calloutPerimeter;align=left;dashed=1;strokeColor=#888888;" parent="1" vertex="1">
          <mxGeometry x="-200" y="30" width="190" height="70" as="geometry" />
        </mxCell>
        <mxCell id="-9IPMKyI9ktzAvCkotJi-131" value="" style="endArrow=async;html=1;dashed=1;endFill=1;strokeColor=#8C8C8C;dashPattern=1 4;" parent="1" source="-9IPMKyI9ktzAvCkotJi-130" target="-9IPMKyI9ktzAvCkotJi-127" edge="1">
          <mxGeometry width="50" height="50" relative="1" as="geometry">
            <mxPoint x="-390" y="169.75489361702085" as="sourcePoint" />
            <mxPoint x="-295" y="169.16978723404264" as="targetPoint" />
          </mxGeometry>
        </mxCell>
        <mxCell id="ZJUZ4eZtSbDHKU7JVQRD-12" value="&lt;font color=&quot;#888888&quot;&gt;NEBIloggerViewer&lt;/font&gt;" style="rounded=1;whiteSpace=wrap;html=1;strokeColor=#888888;" parent="1" vertex="1">
          <mxGeometry x="1423.3" y="210" width="150" height="50" as="geometry" />
        </mxCell>
        <mxCell id="ZJUZ4eZtSbDHKU7JVQRD-13" value="" style="endArrow=block;html=1;endFill=1;strokeColor=#888888;" parent="1" source="-9IPMKyI9ktzAvCkotJi-72" target="ZJUZ4eZtSbDHKU7JVQRD-12" edge="1">
          <mxGeometry width="50" height="50" relative="1" as="geometry">
            <mxPoint x="1217.3" y="200" as="sourcePoint" />
            <mxPoint x="1435.3" y="200" as="targetPoint" />
          </mxGeometry>
        </mxCell>
        <mxCell id="ZJUZ4eZtSbDHKU7JVQRD-14" value="&lt;font color=&quot;#888888&quot;&gt;可：输出到埋点校验通道&lt;/font&gt;" style="edgeLabel;html=1;align=center;verticalAlign=middle;resizable=0;points=[];" parent="ZJUZ4eZtSbDHKU7JVQRD-13" vertex="1" connectable="0">
          <mxGeometry x="-0.0109" y="-2" relative="1" as="geometry">
            <mxPoint y="-2" as="offset" />
          </mxGeometry>
        </mxCell>
        <mxCell id="ZJUZ4eZtSbDHKU7JVQRD-15" value="&lt;font color=&quot;#333333&quot; style=&quot;font-size: 18px&quot;&gt;&lt;b style=&quot;font-size: 18px&quot;&gt;iOS SDK整体架构图：&lt;/b&gt;&lt;/font&gt;" style="text;html=1;strokeColor=none;fillColor=none;align=left;verticalAlign=middle;whiteSpace=wrap;rounded=0;dashed=1;fontColor=#999999;fontSize=18;" parent="1" vertex="1">
          <mxGeometry x="-200" y="-110" width="260" height="30" as="geometry" />
        </mxCell>
        <mxCell id="ZJUZ4eZtSbDHKU7JVQRD-19" style="edgeStyle=none;rounded=0;orthogonalLoop=1;jettySize=auto;html=1;strokeColor=#333333;fontSize=18;fontColor=#999999;" parent="1" source="ZJUZ4eZtSbDHKU7JVQRD-17" target="-9IPMKyI9ktzAvCkotJi-72" edge="1">
          <mxGeometry relative="1" as="geometry" />
        </mxCell>
        <mxCell id="ZJUZ4eZtSbDHKU7JVQRD-17" value="&lt;b&gt;EventEmiter&lt;/b&gt;" style="rounded=1;whiteSpace=wrap;html=1;strokeWidth=2;" parent="1" vertex="1">
          <mxGeometry x="670" y="165" width="120" height="50" as="geometry" />
        </mxCell>
        <mxCell id="tUdVWyh1depMTYAJVUoq-3" style="edgeStyle=orthogonalEdgeStyle;rounded=0;orthogonalLoop=1;jettySize=auto;html=1;" parent="1" source="tUdVWyh1depMTYAJVUoq-1" target="tUdVWyh1depMTYAJVUoq-2" edge="1">
          <mxGeometry relative="1" as="geometry" />
        </mxCell>
        <mxCell id="tUdVWyh1depMTYAJVUoq-1" value="&lt;b&gt;Traverser&lt;br&gt;Runner&lt;/b&gt;" style="rounded=1;whiteSpace=wrap;html=1;" parent="1" vertex="1">
          <mxGeometry x="-130" y="850" width="90" height="50" as="geometry" />
        </mxCell>
        <mxCell id="tUdVWyh1depMTYAJVUoq-5" style="edgeStyle=orthogonalEdgeStyle;rounded=0;orthogonalLoop=1;jettySize=auto;html=1;" parent="1" source="tUdVWyh1depMTYAJVUoq-2" target="tUdVWyh1depMTYAJVUoq-4" edge="1">
          <mxGeometry relative="1" as="geometry" />
        </mxCell>
        <mxCell id="tUdVWyh1depMTYAJVUoq-2" value="&lt;b&gt;Traverser&lt;/b&gt;" style="rounded=1;whiteSpace=wrap;html=1;" parent="1" vertex="1">
          <mxGeometry y="850" width="90" height="50" as="geometry" />
        </mxCell>
        <mxCell id="tUdVWyh1depMTYAJVUoq-15" style="edgeStyle=elbowEdgeStyle;rounded=0;orthogonalLoop=1;jettySize=auto;html=1;entryX=0.5;entryY=0;entryDx=0;entryDy=0;elbow=vertical;exitX=0.5;exitY=1;exitDx=0;exitDy=0;" parent="1" source="tUdVWyh1depMTYAJVUoq-21" target="tUdVWyh1depMTYAJVUoq-8" edge="1">
          <mxGeometry relative="1" as="geometry">
            <Array as="points">
              <mxPoint x="280" y="950" />
              <mxPoint x="340" y="960" />
            </Array>
          </mxGeometry>
        </mxCell>
        <mxCell id="tUdVWyh1depMTYAJVUoq-16" value="Push queue" style="edgeLabel;html=1;align=center;verticalAlign=middle;resizable=0;points=[];" parent="tUdVWyh1depMTYAJVUoq-15" vertex="1" connectable="0">
          <mxGeometry x="-0.1698" relative="1" as="geometry">
            <mxPoint x="15" as="offset" />
          </mxGeometry>
        </mxCell>
        <mxCell id="tUdVWyh1depMTYAJVUoq-22" style="edgeStyle=elbowEdgeStyle;rounded=0;orthogonalLoop=1;jettySize=auto;elbow=vertical;html=1;" parent="1" source="tUdVWyh1depMTYAJVUoq-4" target="tUdVWyh1depMTYAJVUoq-21" edge="1">
          <mxGeometry relative="1" as="geometry" />
        </mxCell>
        <mxCell id="tUdVWyh1depMTYAJVUoq-4" value="&lt;b&gt;VTree&lt;/b&gt;" style="rounded=1;whiteSpace=wrap;html=1;" parent="1" vertex="1">
          <mxGeometry x="130" y="850" width="120" height="50" as="geometry" />
        </mxCell>
        <mxCell id="tUdVWyh1depMTYAJVUoq-18" style="edgeStyle=elbowEdgeStyle;rounded=0;orthogonalLoop=1;jettySize=auto;elbow=vertical;html=1;entryX=0;entryY=0.5;entryDx=0;entryDy=0;" parent="1" source="tUdVWyh1depMTYAJVUoq-8" target="tUdVWyh1depMTYAJVUoq-17" edge="1">
          <mxGeometry relative="1" as="geometry" />
        </mxCell>
        <mxCell id="tUdVWyh1depMTYAJVUoq-8" value="" style="rounded=1;whiteSpace=wrap;html=1;fillColor=#FFF2CC;" parent="1" vertex="1">
          <mxGeometry x="65" y="1005" width="250" height="60" as="geometry" />
        </mxCell>
        <mxCell id="tUdVWyh1depMTYAJVUoq-9" value="&lt;b style=&quot;color: rgb(0 , 0 , 0) ; font-family: &amp;#34;helvetica&amp;#34; ; font-size: 12px ; font-style: normal ; letter-spacing: normal ; text-align: center ; text-indent: 0px ; text-transform: none ; word-spacing: 0px ; background-color: rgb(248 , 249 , 250)&quot;&gt;VTree Task Queue:&lt;/b&gt;" style="text;whiteSpace=wrap;html=1;" parent="1" vertex="1">
          <mxGeometry x="75" y="1005" width="130" height="30" as="geometry" />
        </mxCell>
        <mxCell id="tUdVWyh1depMTYAJVUoq-10" value="T" style="ellipse;whiteSpace=wrap;html=1;aspect=fixed;" parent="1" vertex="1">
          <mxGeometry x="175" y="1030" width="30" height="30" as="geometry" />
        </mxCell>
        <mxCell id="tUdVWyh1depMTYAJVUoq-11" value="T" style="ellipse;whiteSpace=wrap;html=1;aspect=fixed;" parent="1" vertex="1">
          <mxGeometry x="219" y="1030" width="30" height="30" as="geometry" />
        </mxCell>
        <mxCell id="tUdVWyh1depMTYAJVUoq-12" value="T" style="ellipse;whiteSpace=wrap;html=1;aspect=fixed;" parent="1" vertex="1">
          <mxGeometry x="265" y="1030" width="30" height="30" as="geometry" />
        </mxCell>
        <mxCell id="tUdVWyh1depMTYAJVUoq-17" value="" style="rounded=0;whiteSpace=wrap;html=1;dashed=1;fillColor=#CCFFCC;strokeColor=none;" parent="1" vertex="1">
          <mxGeometry x="387.3" y="959.38" width="802.7" height="151.25" as="geometry" />
        </mxCell>
        <mxCell id="tUdVWyh1depMTYAJVUoq-19" value="&lt;b style=&quot;color: rgb(0 , 0 , 0) ; font-family: &amp;#34;helvetica&amp;#34; ; font-style: normal ; letter-spacing: normal ; text-align: center ; text-indent: 0px ; text-transform: none ; word-spacing: 0px ; background-color: rgb(248 , 249 , 250)&quot;&gt;&lt;font style=&quot;font-size: 14px&quot;&gt;Consume T(other thread):&lt;/font&gt;&lt;/b&gt;" style="text;whiteSpace=wrap;html=1;" parent="1" vertex="1">
          <mxGeometry x="397.3" y="965.63" width="220" height="30" as="geometry" />
        </mxCell>
        <mxCell id="tUdVWyh1depMTYAJVUoq-29" style="edgeStyle=elbowEdgeStyle;rounded=0;orthogonalLoop=1;jettySize=auto;elbow=vertical;html=1;" parent="1" source="tUdVWyh1depMTYAJVUoq-20" target="tUdVWyh1depMTYAJVUoq-25" edge="1">
          <mxGeometry relative="1" as="geometry" />
        </mxCell>
        <mxCell id="tUdVWyh1depMTYAJVUoq-20" value="&lt;b&gt;遮挡计算&lt;/b&gt;" style="rounded=1;whiteSpace=wrap;html=1;" parent="1" vertex="1">
          <mxGeometry x="417.3" y="1020.63" width="120" height="50" as="geometry" />
        </mxCell>
        <mxCell id="tUdVWyh1depMTYAJVUoq-34" style="rounded=0;orthogonalLoop=1;jettySize=auto;html=1;dashed=1;" parent="1" source="tUdVWyh1depMTYAJVUoq-21" target="tUdVWyh1depMTYAJVUoq-33" edge="1">
          <mxGeometry relative="1" as="geometry" />
        </mxCell>
        <mxCell id="tUdVWyh1depMTYAJVUoq-21" value="&lt;b&gt;Node Prepare Data&lt;/b&gt;" style="rounded=1;whiteSpace=wrap;html=1;" parent="1" vertex="1">
          <mxGeometry x="300" y="850" width="120" height="50" as="geometry" />
        </mxCell>
        <mxCell id="tUdVWyh1depMTYAJVUoq-24" value="&lt;b style=&quot;color: rgb(0 , 0 , 0) ; font-family: &amp;#34;helvetica&amp;#34; ; font-style: normal ; letter-spacing: normal ; text-align: center ; text-indent: 0px ; text-transform: none ; word-spacing: 0px ; background-color: rgb(248 , 249 , 250)&quot;&gt;&lt;font style=&quot;font-size: 14px&quot;&gt;Generate VTree(main thread):&lt;/font&gt;&lt;/b&gt;" style="text;whiteSpace=wrap;html=1;" parent="1" vertex="1">
          <mxGeometry x="-150" y="790" width="200" height="30" as="geometry" />
        </mxCell>
        <mxCell id="tUdVWyh1depMTYAJVUoq-30" style="edgeStyle=elbowEdgeStyle;rounded=0;orthogonalLoop=1;jettySize=auto;elbow=vertical;html=1;" parent="1" source="tUdVWyh1depMTYAJVUoq-25" target="tUdVWyh1depMTYAJVUoq-26" edge="1">
          <mxGeometry relative="1" as="geometry" />
        </mxCell>
        <mxCell id="tUdVWyh1depMTYAJVUoq-25" value="&lt;b&gt;生成可见节点数组&lt;/b&gt;" style="rounded=1;whiteSpace=wrap;html=1;" parent="1" vertex="1">
          <mxGeometry x="572.5999999999999" y="1020.63" width="120" height="50" as="geometry" />
        </mxCell>
        <mxCell id="tUdVWyh1depMTYAJVUoq-31" style="edgeStyle=elbowEdgeStyle;rounded=0;orthogonalLoop=1;jettySize=auto;elbow=vertical;html=1;" parent="1" source="tUdVWyh1depMTYAJVUoq-26" target="tUdVWyh1depMTYAJVUoq-27" edge="1">
          <mxGeometry relative="1" as="geometry" />
        </mxCell>
        <mxCell id="tUdVWyh1depMTYAJVUoq-26" value="&lt;b&gt;可见节点数组diff&lt;/b&gt;" style="rounded=1;whiteSpace=wrap;html=1;" parent="1" vertex="1">
          <mxGeometry x="722.3" y="1020.63" width="120" height="50" as="geometry" />
        </mxCell>
        <mxCell id="tUdVWyh1depMTYAJVUoq-32" style="edgeStyle=elbowEdgeStyle;rounded=0;orthogonalLoop=1;jettySize=auto;elbow=vertical;html=1;" parent="1" source="tUdVWyh1depMTYAJVUoq-27" target="tUdVWyh1depMTYAJVUoq-28" edge="1">
          <mxGeometry relative="1" as="geometry" />
        </mxCell>
        <mxCell id="tUdVWyh1depMTYAJVUoq-27" value="&lt;b&gt;曝光/反曝光&lt;/b&gt;" style="rounded=1;whiteSpace=wrap;html=1;" parent="1" vertex="1">
          <mxGeometry x="877.3" y="1020.63" width="120" height="50" as="geometry" />
        </mxCell>
        <mxCell id="tUdVWyh1depMTYAJVUoq-28" value="&lt;b&gt;output&lt;/b&gt;" style="rounded=1;whiteSpace=wrap;html=1;" parent="1" vertex="1">
          <mxGeometry x="1037.3" y="1020.63" width="120" height="50" as="geometry" />
        </mxCell>
        <mxCell id="tUdVWyh1depMTYAJVUoq-33" value="&lt;h1&gt;Prepare Data（需要在主线程）&lt;/h1&gt;&lt;p&gt;1. 设置对象维度的params&lt;/p&gt;&lt;p&gt;2. 计算node维度的VisibleRect（结果都是相对于parentNode的值）&lt;br&gt;&amp;nbsp; - 一种是仅仅相对于parentNode的VisibleRect&lt;br&gt;&amp;nbsp; - 一种是向上递归view树计算的VisibleRect&lt;/p&gt;" style="text;html=1;fillColor=none;spacing=5;spacingTop=-20;whiteSpace=wrap;overflow=hidden;rounded=0;dashed=1;strokeColor=#000000;" parent="1" vertex="1">
          <mxGeometry x="572.6" y="760" width="390" height="125" as="geometry" />
        </mxCell>
        <mxCell id="H4OJQVjIFTHqEDWcg4Kd-1" value="" style="shape=process;whiteSpace=wrap;html=1;backgroundOutline=1;strokeWidth=1;" vertex="1" parent="1">
          <mxGeometry x="75" y="325" width="190" height="30" as="geometry" />
        </mxCell>
        <mxCell id="H4OJQVjIFTHqEDWcg4Kd-2" value="e" style="ellipse;whiteSpace=wrap;html=1;aspect=fixed;strokeWidth=1;" vertex="1" parent="1">
          <mxGeometry x="115" y="330" width="20" height="20" as="geometry" />
        </mxCell>
        <mxCell id="H4OJQVjIFTHqEDWcg4Kd-4" value="e" style="ellipse;whiteSpace=wrap;html=1;aspect=fixed;strokeWidth=1;" vertex="1" parent="1">
          <mxGeometry x="145" y="330" width="20" height="20" as="geometry" />
        </mxCell>
        <mxCell id="H4OJQVjIFTHqEDWcg4Kd-5" value="e" style="ellipse;whiteSpace=wrap;html=1;aspect=fixed;strokeWidth=1;" vertex="1" parent="1">
          <mxGeometry x="175" y="330" width="20" height="20" as="geometry" />
        </mxCell>
        <mxCell id="H4OJQVjIFTHqEDWcg4Kd-7" value=". . ." style="text;html=1;strokeColor=none;fillColor=none;align=center;verticalAlign=middle;whiteSpace=wrap;rounded=0;" vertex="1" parent="1">
          <mxGeometry x="205" y="330" width="30" height="20" as="geometry" />
        </mxCell>
        <mxCell id="H4OJQVjIFTHqEDWcg4Kd-10" value="&lt;font color=&quot;#000000&quot;&gt;判断&lt;/font&gt;" style="triangle;whiteSpace=wrap;html=1;fontColor=#666666;strokeWidth=1;" vertex="1" parent="1">
          <mxGeometry x="140" y="445" width="60" height="80" as="geometry" />
        </mxCell>
        <mxCell id="H4OJQVjIFTHqEDWcg4Kd-13" value="AOP queue" style="text;html=1;fillColor=none;align=left;verticalAlign=middle;whiteSpace=wrap;rounded=0;strokeColor=#666666;" vertex="1" parent="1">
          <mxGeometry x="75" y="305" width="75" height="20" as="geometry" />
        </mxCell>
        <mxCell id="H4OJQVjIFTHqEDWcg4Kd-18" style="rounded=0;orthogonalLoop=1;jettySize=auto;html=1;dashed=1;fontColor=#000000;strokeColor=#666666;" edge="1" parent="1" source="H4OJQVjIFTHqEDWcg4Kd-17" target="ZJUZ4eZtSbDHKU7JVQRD-17">
          <mxGeometry relative="1" as="geometry" />
        </mxCell>
        <mxCell id="H4OJQVjIFTHqEDWcg4Kd-17" value="&lt;font color=&quot;#888888&quot;&gt;1. 曝光 &amp;amp; 以及所有事件埋点&lt;br&gt;2. 曝光开始/结束依赖前后VTrees&lt;br&gt;3. 事件依赖当前VTree&lt;br&gt;&lt;/font&gt;" style="shape=callout;whiteSpace=wrap;html=1;perimeter=calloutPerimeter;align=left;dashed=1;strokeColor=#888888;" vertex="1" parent="1">
          <mxGeometry x="600" y="30" width="212.5" height="80" as="geometry" />
        </mxCell>
      </root>
    </mxGraphModel>
  </diagram>
</mxfile>
